<?xml version="1.0" encoding="UTF-8"?>
<svg width="1024px" height="1024px" viewBox="0 0 1024 1024" version="1.1" xmlns="http://www.w3.org/2000/svg" xmlns:xlink="http://www.w3.org/1999/xlink">
    <title>landmarks-app-icon-layer-5</title>
    <defs>
        <linearGradient x1="50.0000288%" y1="99.9994005%" x2="50.0000288%" y2="-0.00179863663%" id="linearGradient-1">
            <stop stop-color="#FFFFFF" offset="0%"></stop>
            <stop stop-color="#FFFFFF" offset="0%"></stop>
            <stop stop-color="#FFFFFF" offset="0%"></stop>
            <stop stop-color="#FFFFFF" offset="100%"></stop>
        </linearGradient>
    </defs>
    <g id="landmarks-app-icon-layer-5" stroke="none" stroke-width="1" fill="none" fill-rule="evenodd">
        <path d="M381.591648,611.057427 C382.253493,618.772071 378.271335,625.789089 371.50139,630.787357 C365.265816,635.389928 356.583308,638.254077 347.023727,638.254077 L153.744968,638.254077 C135.311669,638.254077 119.007083,628.091601 117.746666,614.517087 C117.026165,606.756785 121.012017,599.641579 127.824916,594.651656 C134.05818,590.01472 142.740688,587.151062 152.302578,587.151062 L178.560712,587.151062 C182.387223,587.151062 185.332505,584.813693 185.325115,581.98931 C185.325115,581.971636 185.325115,581.953962 185.325115,581.936288 C185.325115,574.879014 189.206125,568.503656 195.486961,563.868192 C201.767797,559.231256 210.405043,556.36858 219.964624,556.36858 L298.988428,556.36858 C318.109898,556.36858 333.582674,567.822721 333.582674,581.936779 C333.582674,581.954453 333.582674,581.972127 333.582674,581.989801 C333.575284,584.814675 336.52149,587.151553 340.348463,587.151553 L345.543004,587.151553 C364.069598,587.151553 380.421294,597.410744 381.591648,611.058409 L381.591648,611.057427 Z" id="Path" fill="url(#linearGradient-1)" fill-rule="nonzero"></path>
    </g>
</svg>